<svg width="1200" height="800" viewBox="0 0 1200 800" fill="none" xmlns="http://www.w3.org/2000/svg">
<g id="104_0">
<g id="zones">
<g id="z-104-0-south">
<rect id="hitbox" x="241" y="606" width="747.088" height="23" fill="black" fill-opacity="0.01"/>
<path id="arrow" d="M977.058 619.062C977.645 618.477 977.647 617.527 977.063 616.941L967.537 607.383C966.952 606.796 966.002 606.795 965.415 607.38C964.828 607.965 964.826 608.915 965.411 609.501L973.879 617.997L965.376 626.472C964.789 627.057 964.787 628.007 965.372 628.593C965.956 629.18 966.906 629.181 967.493 628.596L977.058 619.062ZM252.117 616.024C251.53 616.609 251.528 617.558 252.113 618.145L261.639 627.703C262.224 628.289 263.174 628.291 263.761 627.706C264.348 627.121 264.35 626.171 263.765 625.584L255.297 617.088L263.8 608.614C264.387 608.029 264.389 607.079 263.804 606.492C263.22 605.906 262.27 605.905 261.683 606.49L252.117 616.024ZM976 618L976.003 616.5L253.179 615.586L253.176 617.086L253.173 618.586L975.997 619.5L976 618Z" fill="black"/>
</g>
<g id="z-104-0-east">
<rect id="hitbox_2" x="1172.51" y="428" width="28" height="288.511" transform="rotate(90 1172.51 428)" fill="#E63917" fill-opacity="0.01"/>
<path id="arrow_2" d="M1163.74 443.061C1164.32 442.475 1164.32 441.525 1163.74 440.939L1154.19 431.393C1153.6 430.808 1152.65 430.808 1152.07 431.393C1151.48 431.979 1151.48 432.929 1152.07 433.515L1160.55 442L1152.07 450.485C1151.48 451.071 1151.48 452.021 1152.07 452.607C1152.65 453.192 1153.6 453.192 1154.19 452.607L1163.74 443.061ZM891.89 440.939C891.305 441.525 891.305 442.475 891.89 443.061L901.436 452.607C902.022 453.192 902.972 453.192 903.558 452.607C904.143 452.021 904.143 451.071 903.558 450.485L895.072 442L903.558 433.515C904.143 432.929 904.143 431.979 903.558 431.393C902.972 430.808 902.022 430.808 901.436 431.393L891.89 440.939ZM1162.68 442V440.5H892.951V442V443.5H1162.68V442Z" fill="#E63917"/>
</g>
<g id="z-104-0-west">
<rect id="hitbox_3" x="329" y="293" width="31" height="298.791" fill="black" fill-opacity="0.01"/>
<path id="arrow_3" d="M346.061 304.902C345.475 304.316 344.525 304.316 343.939 304.902L334.393 314.448C333.808 315.034 333.808 315.984 334.393 316.569C334.979 317.155 335.929 317.155 336.515 316.569L345 308.084L353.485 316.569C354.071 317.155 355.021 317.155 355.607 316.569C356.192 315.984 356.192 315.034 355.607 314.448L346.061 304.902ZM343.939 579.286C344.525 579.872 345.475 579.872 346.061 579.286L355.607 569.74C356.192 569.155 356.192 568.205 355.607 567.619C355.021 567.033 354.071 567.033 353.485 567.619L345 576.104L336.515 567.619C335.929 567.033 334.979 567.033 334.393 567.619C333.808 568.205 333.808 569.155 334.393 569.74L343.939 579.286ZM345 305.963H343.5V578.226H345H346.5V305.963H345Z" fill="black"/>
</g>
<g id="z-104-0-north">
<rect id="hitbox_4" x="258.239" y="273" width="699.761" height="20" fill="#C3E496" fill-opacity="0.01"/>
<path id="arrow_4" d="M951.828 284.061C952.414 283.475 952.414 282.525 951.828 281.939L942.282 272.393C941.696 271.808 940.747 271.808 940.161 272.393C939.575 272.979 939.575 273.929 940.161 274.515L948.646 283L940.161 291.485C939.575 292.071 939.575 293.021 940.161 293.607C940.747 294.192 941.696 294.192 942.282 293.607L951.828 284.061ZM265.334 281.939C264.748 282.525 264.748 283.475 265.334 284.061L274.88 293.607C275.465 294.192 276.415 294.192 277.001 293.607C277.587 293.021 277.587 292.071 277.001 291.485L268.516 283L277.001 274.515C277.587 273.929 277.587 272.979 277.001 272.393C276.415 271.808 275.465 271.808 274.88 272.393L265.334 281.939ZM950.767 283V281.5L266.394 281.5V283V284.5L950.767 284.5V283Z" fill="#C3E496"/>
</g>
</g>
</g>
</svg>
