<svg width="1200" height="800" viewBox="0 0 1200 800" fill="none" xmlns="http://www.w3.org/2000/svg">
<g id="104_2">
<g id="zones">
<g id="z-104-2-south-scr-5-8">
<rect id="hitbox" x="184" y="598" width="747.088" height="23" fill="#FACC15" fill-opacity="0.01"/>
<path id="arrow" d="M920.058 611.062C920.645 610.477 920.647 609.527 920.063 608.941L910.537 599.383C909.952 598.796 909.002 598.795 908.415 599.38C907.828 599.965 907.826 600.915 908.411 601.501L916.879 609.997L908.376 618.472C907.789 619.057 907.787 620.007 908.372 620.593C908.956 621.18 909.906 621.181 910.493 620.596L920.058 611.062ZM195.117 608.024C194.53 608.609 194.528 609.558 195.113 610.145L204.639 619.703C205.224 620.289 206.174 620.291 206.761 619.706C207.348 619.121 207.349 618.171 206.765 617.584L198.297 609.088L206.8 600.614C207.387 600.029 207.389 599.079 206.804 598.492C206.22 597.906 205.27 597.905 204.683 598.49L195.117 608.024ZM919 610L919.003 608.5L196.179 607.586L196.176 609.086L196.173 610.586L918.997 611.5L919 610Z" fill="#FACC15"/>
</g>
<g id="z-104-2-east-vert">
<rect id="hitbox_2" x="917" y="298" width="28" height="264" fill="#FA1515" fill-opacity="0.01"/>
<path id="arrow_2" d="M932.061 305.939C931.475 305.354 930.525 305.354 929.939 305.939L920.393 315.485C919.808 316.071 919.808 317.021 920.393 317.607C920.979 318.192 921.929 318.192 922.515 317.607L931 309.121L939.485 317.607C940.071 318.192 941.021 318.192 941.607 317.607C942.192 317.021 942.192 316.071 941.607 315.485L932.061 305.939ZM929.939 554.87C930.525 555.456 931.475 555.456 932.061 554.87L941.607 545.324C942.192 544.738 942.192 543.788 941.607 543.203C941.021 542.617 940.071 542.617 939.485 543.203L931 551.688L922.515 543.203C921.929 542.617 920.979 542.617 920.393 543.203C919.808 543.788 919.808 544.738 920.393 545.324L929.939 554.87ZM931 307H929.5V553.809H931H932.5V307H931Z" fill="#FA1515"/>
</g>
<g id="z-104-2-west-vert">
<rect id="hitbox_3" x="167" y="286" width="31" height="276.599" fill="black" fill-opacity="0.01"/>
<path id="arrow_3" d="M184.061 296.939C183.475 296.354 182.525 296.354 181.939 296.939L172.393 306.485C171.808 307.071 171.808 308.021 172.393 308.607C172.979 309.192 173.929 309.192 174.515 308.607L183 300.121L191.485 308.607C192.071 309.192 193.021 309.192 193.607 308.607C194.192 308.021 194.192 307.071 193.607 306.485L184.061 296.939ZM181.939 551.102C182.525 551.687 183.475 551.687 184.061 551.102L193.607 541.556C194.192 540.97 194.192 540.02 193.607 539.434C193.021 538.849 192.071 538.849 191.485 539.434L183 547.92L174.515 539.434C173.929 538.849 172.979 538.849 172.393 539.434C171.808 540.02 171.808 540.97 172.393 541.556L181.939 551.102ZM183 298H181.5V550.041H183H184.5V298H183Z" fill="black"/>
</g>
<g id="z-104-2-north-scr-1-4">
<rect id="hitbox_4" x="183" y="261" width="774" height="20" fill="#FACC15" fill-opacity="0.01"/>
<path id="arrow_4" d="M950.061 272.061C950.646 271.475 950.646 270.525 950.061 269.939L940.515 260.393C939.929 259.808 938.979 259.808 938.393 260.393C937.808 260.979 937.808 261.929 938.393 262.515L946.879 271L938.393 279.485C937.808 280.071 937.808 281.021 938.393 281.607C938.979 282.192 939.929 282.192 940.515 281.607L950.061 272.061ZM190.96 269.939C190.374 270.525 190.374 271.475 190.96 272.061L200.506 281.607C201.092 282.192 202.042 282.192 202.627 281.607C203.213 281.021 203.213 280.071 202.627 279.485L194.142 271L202.627 262.515C203.213 261.929 203.213 260.979 202.627 260.393C202.042 259.808 201.092 259.808 200.506 260.393L190.96 269.939ZM949 271V269.5L192.021 269.5V271V272.5L949 272.5V271Z" fill="#FACC15"/>
</g>
</g>
</g>
</svg>
