<svg width="1200" height="800" viewBox="0 0 1200 800" fill="none" xmlns="http://www.w3.org/2000/svg">
<g id="104_3">
<g id="zones">
<g id="z-104-3-south">
<rect id="hitbox" x="184" y="607" width="747.088" height="23" fill="black" fill-opacity="0.01"/>
<path id="arrow" d="M920.058 620.062C920.645 619.477 920.647 618.527 920.063 617.941L910.537 608.383C909.952 607.796 909.002 607.795 908.415 608.38C907.828 608.965 907.826 609.915 908.411 610.501L916.879 618.997L908.376 627.472C907.789 628.057 907.787 629.007 908.372 629.593C908.956 630.18 909.906 630.181 910.493 629.596L920.058 620.062ZM195.117 617.024C194.53 617.609 194.528 618.558 195.113 619.145L204.639 628.703C205.224 629.289 206.174 629.291 206.761 628.706C207.348 628.121 207.35 627.171 206.765 626.584L198.297 618.088L206.8 609.614C207.387 609.029 207.389 608.079 206.804 607.492C206.22 606.906 205.27 606.905 204.683 607.49L195.117 617.024ZM919 619L919.003 617.5L196.179 616.586L196.176 618.086L196.173 619.586L918.997 620.5L919 619Z" fill="black"/>
</g>
<g id="z-104-3-east">
<rect id="hitbox_2" x="903" y="307" width="28" height="264" fill="black" fill-opacity="0.01"/>
<path id="arrow_2" d="M918.061 314.939C917.475 314.354 916.525 314.354 915.939 314.939L906.393 324.485C905.808 325.071 905.808 326.021 906.393 326.607C906.979 327.192 907.929 327.192 908.515 326.607L917 318.121L925.485 326.607C926.071 327.192 927.021 327.192 927.607 326.607C928.192 326.021 928.192 325.071 927.607 324.485L918.061 314.939ZM915.939 563.87C916.525 564.456 917.475 564.456 918.061 563.87L927.607 554.324C928.192 553.738 928.192 552.788 927.607 552.203C927.021 551.617 926.071 551.617 925.485 552.203L917 560.688L908.515 552.203C907.929 551.617 906.979 551.617 906.393 552.203C905.808 552.788 905.808 553.738 906.393 554.324L915.939 563.87ZM917 316H915.5V562.809H917H918.5V316H917Z" fill="black"/>
</g>
<g id="z-104-3-west">
<rect id="hitbox_3" x="213" y="307" width="31" height="276.599" fill="black" fill-opacity="0.01"/>
<path id="arrow_3" d="M230.061 317.939C229.475 317.354 228.525 317.354 227.939 317.939L218.393 327.485C217.808 328.071 217.808 329.021 218.393 329.607C218.979 330.192 219.929 330.192 220.515 329.607L229 321.121L237.485 329.607C238.071 330.192 239.021 330.192 239.607 329.607C240.192 329.021 240.192 328.071 239.607 327.485L230.061 317.939ZM227.939 572.102C228.525 572.687 229.475 572.687 230.061 572.102L239.607 562.556C240.192 561.97 240.192 561.02 239.607 560.434C239.021 559.849 238.071 559.849 237.485 560.434L229 568.92L220.515 560.434C219.929 559.849 218.979 559.849 218.393 560.434C217.808 561.02 217.808 561.97 218.393 562.556L227.939 572.102ZM229 319H227.5V571.041H229H230.5V319H229Z" fill="black"/>
</g>
<g id="z-104-3-north">
<rect id="hitbox_4" x="184" y="273" width="774" height="20" fill="black" fill-opacity="0.01"/>
<path id="arrow_4" d="M951.061 284.061C951.646 283.475 951.646 282.525 951.061 281.939L941.515 272.393C940.929 271.808 939.979 271.808 939.393 272.393C938.808 272.979 938.808 273.929 939.393 274.515L947.879 283L939.393 291.485C938.808 292.071 938.808 293.021 939.393 293.607C939.979 294.192 940.929 294.192 941.515 293.607L951.061 284.061ZM191.96 281.939C191.374 282.525 191.374 283.475 191.96 284.061L201.506 293.607C202.092 294.192 203.042 294.192 203.627 293.607C204.213 293.021 204.213 292.071 203.627 291.485L195.142 283L203.627 274.515C204.213 273.929 204.213 272.979 203.627 272.393C203.042 271.808 202.092 271.808 201.506 272.393L191.96 281.939ZM950 283V281.5L193.021 281.5V283V284.5L950 284.5V283Z" fill="black"/>
</g>
</g>
</g>
</svg>
