<svg width="1200" height="800" viewBox="0 0 1200 800" fill="none" xmlns="http://www.w3.org/2000/svg">
<g id="104_1">
<g id="zones">
<g id="z-104-1-south">
<rect id="hitbox" x="184" y="607" width="747.088" height="23" fill="black" fill-opacity="0.01"/>
<path id="arrow" d="M920.058 620.062C920.645 619.477 920.647 618.527 920.063 617.941L910.537 608.383C909.952 607.796 909.002 607.795 908.415 608.38C907.828 608.965 907.826 609.915 908.411 610.501L916.879 618.997L908.376 627.472C907.789 628.057 907.787 629.007 908.372 629.593C908.956 630.18 909.906 630.181 910.493 629.596L920.058 620.062ZM195.117 617.024C194.53 617.609 194.528 618.558 195.113 619.145L204.639 628.703C205.224 629.289 206.174 629.291 206.761 628.706C207.348 628.121 207.35 627.171 206.765 626.584L198.297 618.088L206.8 609.614C207.387 609.029 207.389 608.079 206.804 607.492C206.22 606.906 205.27 606.905 204.683 607.49L195.117 617.024ZM919 619L919.003 617.5L196.179 616.586L196.176 618.086L196.173 619.586L918.997 620.5L919 619Z" fill="black"/>
</g>
<g id="z-104-1-east">
<rect id="hitbox_2" x="903" y="307" width="28" height="288.511" fill="black" fill-opacity="0.01"/>
<path id="arrow_2" d="M918.061 315.775C917.475 315.189 916.525 315.189 915.939 315.775L906.393 325.321C905.808 325.907 905.808 326.856 906.393 327.442C906.979 328.028 907.929 328.028 908.515 327.442L917 318.957L925.485 327.442C926.071 328.028 927.021 328.028 927.607 327.442C928.192 326.856 928.192 325.907 927.607 325.321L918.061 315.775ZM915.939 587.62C916.525 588.206 917.475 588.206 918.061 587.62L927.607 578.074C928.192 577.489 928.192 576.539 927.607 575.953C927.021 575.367 926.071 575.367 925.485 575.953L917 584.438L908.515 575.953C907.929 575.367 906.979 575.367 906.393 575.953C905.808 576.539 905.808 577.489 906.393 578.074L915.939 587.62ZM917 316.836H915.5V586.56H917H918.5V316.836H917Z" fill="black"/>
</g>
<g id="z-104-1-west">
<rect id="hitbox_3" x="241" y="307" width="31" height="298.791" fill="black" fill-opacity="0.01"/>
<path id="arrow_3" d="M258.061 318.902C257.475 318.316 256.525 318.316 255.939 318.902L246.393 328.448C245.808 329.034 245.808 329.984 246.393 330.569C246.979 331.155 247.929 331.155 248.515 330.569L257 322.084L265.485 330.569C266.071 331.155 267.021 331.155 267.607 330.569C268.192 329.984 268.192 329.034 267.607 328.448L258.061 318.902ZM255.939 593.286C256.525 593.872 257.475 593.872 258.061 593.286L267.607 583.74C268.192 583.155 268.192 582.205 267.607 581.619C267.021 581.033 266.071 581.033 265.485 581.619L257 590.104L248.515 581.619C247.929 581.033 246.979 581.033 246.393 581.619C245.808 582.205 245.808 583.155 246.393 583.74L255.939 593.286ZM257 319.963H255.5V592.226H257H258.5V319.963H257Z" fill="black"/>
</g>
<g id="z-104-1-north">
<rect id="hitbox_4" x="184" y="273" width="774" height="20" fill="#FFFF00" fill-opacity="0.01"/>
<path id="arrow_4" d="M951.061 284.061C951.646 283.475 951.646 282.525 951.061 281.939L941.515 272.393C940.929 271.808 939.979 271.808 939.393 272.393C938.808 272.979 938.808 273.929 939.393 274.515L947.879 283L939.393 291.485C938.808 292.071 938.808 293.021 939.393 293.607C939.979 294.192 940.929 294.192 941.515 293.607L951.061 284.061ZM191.96 281.939C191.374 282.525 191.374 283.475 191.96 284.061L201.506 293.607C202.092 294.192 203.042 294.192 203.627 293.607C204.213 293.021 204.213 292.071 203.627 291.485L195.142 283L203.627 274.515C204.213 273.929 204.213 272.979 203.627 272.393C203.042 271.808 202.092 271.808 201.506 272.393L191.96 281.939ZM950 283V281.5L193.021 281.5V283V284.5L950 284.5V283Z" fill="#FFFF00"/>
</g>
</g>
</g>
</svg>
