<svg width="1200" height="800" viewBox="0 0 1200 800" fill="none" xmlns="http://www.w3.org/2000/svg">
<g id="105_2">
<g id="zones">
<g id="z-105-2-a-25-31">
<rect id="hitbox" x="756" y="272" width="79.0001" height="13" transform="rotate(-90 756 272)" fill="#FACC15" fill-opacity="0.01"/>
<path id="arrow" d="M764.109 194.092C763.73 193.701 763.097 193.699 762.694 194.088L756.136 200.43C755.733 200.819 755.714 201.452 756.093 201.844C756.471 202.235 757.104 202.237 757.507 201.848L763.337 196.211L768.821 201.882C769.199 202.273 769.832 202.275 770.235 201.886C770.637 201.497 770.657 200.864 770.278 200.472L764.109 194.092ZM760.291 272.705C760.669 273.096 761.302 273.098 761.705 272.709L768.263 266.367C768.666 265.978 768.685 265.345 768.306 264.953C767.928 264.562 767.295 264.56 766.892 264.949L761.062 270.586L755.579 264.915C755.2 264.524 754.567 264.522 754.164 264.911C753.762 265.3 753.742 265.933 754.121 266.325L760.291 272.705ZM763.38 194.797L762.38 194.794L760.019 271.997L761.019 272L762.019 272.003L764.38 194.8L763.38 194.797Z" fill="#FACC15"/>
</g>
<g id="z-105-2-a-35-42">
<rect id="hitbox_2" x="906" y="355.332" width="162.332" height="13" transform="rotate(-90 906 355.332)" fill="#FACC15" fill-opacity="0.01"/>
<path id="arrow_2" d="M914.097 195.99C913.713 195.597 913.08 195.593 912.683 195.981L906.225 202.305C905.828 202.693 905.819 203.327 906.204 203.719C906.588 204.112 907.222 204.116 907.618 203.728L913.359 198.107L918.931 203.798C919.316 204.19 919.949 204.194 920.346 203.806C920.742 203.418 920.751 202.785 920.367 202.392L914.097 195.99ZM913.38 196.693L912.38 196.686L910.019 355.326L911.019 355.332L912.019 355.338L914.38 196.699L913.38 196.693Z" fill="#FACC15"/>
</g>
<g id="z-105-2-examhale3">
<rect id="hitbox_3" x="671" y="587.786" width="162.332" height="13" transform="rotate(-45 671 587.786)" fill="#FA1515" fill-opacity="0.01"/>
<path id="arrow_3" d="M789.397 480.84C789.403 480.29 788.958 479.84 788.404 479.834L779.365 479.739C778.81 479.733 778.356 480.174 778.35 480.724C778.344 481.274 778.789 481.724 779.344 481.73L787.378 481.814L787.295 489.779C787.289 490.329 787.734 490.779 788.288 490.785C788.843 490.791 789.297 490.35 789.303 489.8L789.397 480.84ZM673.545 591.324C673.539 591.874 673.984 592.325 674.539 592.331L683.577 592.426C684.132 592.431 684.586 591.99 684.592 591.441C684.598 590.891 684.153 590.44 683.598 590.434L675.564 590.35L675.648 582.385C675.653 581.836 675.208 581.385 674.654 581.379C674.099 581.374 673.645 581.815 673.639 582.364L673.545 591.324ZM788.393 480.829L787.69 480.118L673.846 590.624L674.549 591.335L675.252 592.046L789.096 481.541L788.393 480.829Z" fill="#FA1515"/>
</g>
<g id="z-105-2-b-19-24">
<rect id="hitbox_4" x="755" y="367" width="79.0001" height="13" transform="rotate(-90 755 367)" fill="#FACC15" fill-opacity="0.01"/>
<path id="arrow_4" d="M763.109 289.092C762.73 288.701 762.097 288.699 761.694 289.088L755.136 295.43C754.733 295.819 754.714 296.452 755.093 296.844C755.471 297.235 756.104 297.237 756.507 296.848L762.337 291.211L767.821 296.882C768.199 297.273 768.832 297.275 769.235 296.886C769.637 296.497 769.657 295.864 769.278 295.472L763.109 289.092ZM759.291 367.705C759.669 368.096 760.302 368.098 760.705 367.709L767.263 361.367C767.666 360.978 767.685 360.345 767.306 359.953C766.928 359.562 766.295 359.56 765.892 359.949L760.062 365.586L754.579 359.915C754.2 359.524 753.567 359.522 753.164 359.911C752.762 360.3 752.742 360.933 753.121 361.325L759.291 367.705ZM762.38 289.797L761.38 289.794L759.019 366.997L760.019 367L761.019 367.003L763.38 289.8L762.38 289.797Z" fill="#FACC15"/>
</g>
<g id="z-105-2-a-18-21">
<rect id="hitbox_5" x="606" y="266" width="79.0001" height="13" transform="rotate(-90 606 266)" fill="#FACC15" fill-opacity="0.01"/>
<path id="arrow_5" d="M614.109 188.092C613.73 187.701 613.097 187.699 612.694 188.088L606.136 194.43C605.733 194.819 605.714 195.452 606.093 195.844C606.471 196.235 607.104 196.237 607.507 195.848L613.337 190.211L618.821 195.882C619.199 196.273 619.832 196.275 620.235 195.886C620.637 195.497 620.657 194.864 620.278 194.472L614.109 188.092ZM610.291 266.705C610.669 267.096 611.302 267.098 611.705 266.709L618.263 260.367C618.666 259.978 618.685 259.345 618.306 258.953C617.928 258.562 617.295 258.56 616.892 258.949L611.062 264.586L605.579 258.915C605.2 258.524 604.567 258.522 604.164 258.911C603.762 259.3 603.742 259.933 604.121 260.325L610.291 266.705ZM613.38 188.797L612.38 188.794L610.019 265.997L611.019 266L612.019 266.003L614.38 188.8L613.38 188.797Z" fill="#FACC15"/>
</g>
<g id="z-105-2-a-15-17">
<rect id="hitbox_6" x="607" y="399" width="79.0001" height="13" transform="rotate(-90 607 399)" fill="#FACC15" fill-opacity="0.01"/>
<path id="arrow_6" d="M615.109 321.092C614.73 320.701 614.097 320.699 613.694 321.088L607.136 327.43C606.733 327.819 606.714 328.452 607.093 328.844C607.471 329.235 608.104 329.237 608.507 328.848L614.337 323.211L619.821 328.882C620.199 329.273 620.832 329.275 621.235 328.886C621.637 328.497 621.657 327.864 621.278 327.472L615.109 321.092ZM611.291 399.705C611.669 400.096 612.302 400.098 612.705 399.709L619.263 393.367C619.666 392.978 619.685 392.345 619.306 391.953C618.928 391.562 618.295 391.56 617.892 391.949L612.062 397.586L606.579 391.915C606.2 391.524 605.567 391.522 605.164 391.911C604.762 392.3 604.742 392.933 605.121 393.325L611.291 399.705ZM614.38 321.797L613.38 321.794L611.019 398.997L612.019 399L613.019 399.003L615.38 321.8L614.38 321.797Z" fill="#FACC15"/>
</g>
<g id="z-105-2-a-09-35">
<rect id="hitbox_7" x="297" y="174" width="598.332" height="13" fill="#FACC15" fill-opacity="0.01"/>
<path id="arrow_7" d="M296.309 178.309C295.91 178.698 295.896 179.331 296.277 179.723L302.497 186.111C302.879 186.503 303.512 186.506 303.911 186.117C304.311 185.728 304.325 185.095 303.943 184.703L298.415 179.025L304.199 173.392C304.599 173.004 304.613 172.371 304.231 171.979C303.85 171.587 303.216 171.584 302.817 171.973L296.309 178.309ZM881.722 181.38L881.744 180.38L297.023 178.019L297 179.019L296.978 180.019L881.699 182.38L881.722 181.38Z" fill="#FACC15"/>
</g>
<g id="z-105-2-b-04-28">
<rect id="hitbox_8" x="307" y="369" width="598.332" height="13" fill="#FACC15" fill-opacity="0.01"/>
<path id="arrow_8" d="M306.309 373.309C305.91 373.698 305.896 374.331 306.277 374.723L312.497 381.111C312.879 381.503 313.512 381.506 313.911 381.117C314.311 380.728 314.325 380.095 313.943 379.703L308.415 374.025L314.199 368.392C314.599 368.004 314.613 367.371 314.231 366.979C313.85 366.587 313.216 366.584 312.817 366.973L306.309 373.309ZM891.722 376.38L891.744 375.38L307.023 373.019L307 374.019L306.978 375.019L891.699 377.38L891.722 376.38Z" fill="#FACC15"/>
</g>
<g id="z-105-2-a-18-21_2">
<rect id="hitbox_9" x="272" y="315" width="79.0001" height="13" transform="rotate(-90 272 315)" fill="#FACC15" fill-opacity="0.01"/>
<path id="arrow_9" d="M280.109 237.092C279.73 236.701 279.097 236.699 278.694 237.088L272.136 243.43C271.733 243.819 271.714 244.452 272.093 244.844C272.471 245.235 273.104 245.237 273.507 244.848L279.337 239.211L284.821 244.882C285.199 245.273 285.832 245.275 286.235 244.886C286.637 244.497 286.657 243.864 286.278 243.472L280.109 237.092ZM276.291 315.705C276.669 316.096 277.302 316.098 277.705 315.709L284.263 309.367C284.666 308.978 284.685 308.345 284.306 307.953C283.928 307.562 283.295 307.56 282.892 307.949L277.062 313.586L271.579 307.915C271.2 307.524 270.567 307.522 270.164 307.911C269.762 308.3 269.742 308.933 270.121 309.325L276.291 315.705ZM279.38 237.797L278.38 237.794L276.019 314.997L277.019 315L278.019 315.003L280.38 237.8L279.38 237.797Z" fill="#FACC15"/>
</g>
<g id="z-105-2-a-18-21_3">
<rect id="hitbox_10" x="285" y="449" width="107" height="13" transform="rotate(-90 285 449)" fill="#FACC15" fill-opacity="0.01"/>
<path id="arrow_10" d="M293.103 343.73C292.721 343.338 292.088 343.335 291.689 343.724L285.181 350.061C284.782 350.45 284.768 351.083 285.149 351.475C285.531 351.867 286.164 351.869 286.563 351.48L292.348 345.848L297.877 351.526C298.259 351.918 298.892 351.921 299.291 351.532C299.691 351.143 299.705 350.51 299.323 350.118L293.103 343.73ZM289.296 449.704C289.678 450.096 290.311 450.099 290.71 449.71L297.218 443.373C297.617 442.984 297.632 442.351 297.25 441.959C296.868 441.567 296.235 441.565 295.836 441.954L290.051 447.586L284.522 441.908C284.14 441.516 283.507 441.513 283.108 441.902C282.708 442.291 282.694 442.924 283.076 443.316L289.296 449.704ZM292.38 344.434L291.38 344.43L289.019 448.996L290.019 449L291.019 449.004L293.38 344.438L292.38 344.434Z" fill="#FACC15"/>
</g>
</g>
</g>
</svg>
