<svg width="1200" height="800" viewBox="0 0 1200 800" fill="none" xmlns="http://www.w3.org/2000/svg">
<g id="105_1">
<g id="zones">
<g id="z-105-1-a-04-21">
<rect id="hitbox" x="340" y="176" width="597.999" height="13" fill="#FACC15" fill-opacity="0.01"/>
<path id="arrow" d="M926.821 184.09C927.221 183.701 927.235 183.068 926.854 182.676L920.634 176.288C920.252 175.896 919.619 175.893 919.22 176.282C918.82 176.671 918.806 177.304 919.188 177.696L924.716 183.374L918.931 189.007C918.532 189.396 918.517 190.029 918.899 190.421C919.281 190.813 919.914 190.815 920.313 190.426L926.821 184.09ZM339.309 180.309C338.909 180.698 338.895 181.331 339.277 181.723L345.496 188.111C345.878 188.503 346.511 188.506 346.911 188.117C347.31 187.728 347.324 187.095 346.943 186.703L341.414 181.025L347.199 175.392C347.599 175.003 347.613 174.37 347.231 173.978C346.85 173.586 346.216 173.584 345.817 173.973L339.309 180.309ZM926.13 183.38L926.153 182.38L340.023 180.019L340 181.019L339.977 182.019L926.108 184.38L926.13 183.38Z" fill="#FACC15"/>
</g>
<g id="z-105-1-a-01-03">
<rect id="hitbox_2" x="299" y="299" width="140" height="13" transform="rotate(-90 299 299)" fill="#FACC15" fill-opacity="0.01"/>
<path id="arrow_2" d="M307.1 174.355C306.717 173.962 306.084 173.959 305.686 174.348L299.201 180.68C298.803 181.069 298.791 181.702 299.174 182.094C299.557 182.486 300.19 182.489 300.588 182.101L306.353 176.472L311.902 182.155C312.285 182.547 312.918 182.55 313.316 182.162C313.714 181.773 313.726 181.14 313.343 180.748L307.1 174.355ZM303.299 299.704C303.682 300.096 304.315 300.099 304.713 299.71L311.198 293.378C311.596 292.99 311.608 292.356 311.225 291.964C310.842 291.572 310.209 291.569 309.811 291.957L304.046 297.586L298.497 291.903C298.114 291.511 297.481 291.508 297.083 291.896C296.685 292.285 296.673 292.918 297.056 293.31L303.299 299.704ZM306.38 175.058L305.38 175.053L303.019 298.995L304.019 299L305.019 299.005L307.38 175.063L306.38 175.058Z" fill="#FACC15"/>
</g>
<g id="z-105-1-b-04-20">
<rect id="hitbox_3" x="340" y="375" width="545" height="13" fill="#FACC15" fill-opacity="0.01"/>
<path id="arrow_3" d="M874.875 383.09C875.274 382.701 875.287 382.068 874.904 381.676L868.672 375.285C868.289 374.893 867.656 374.89 867.258 375.279C866.859 375.668 866.846 376.301 867.229 376.693L872.768 382.374L866.995 388.004C866.596 388.393 866.583 389.026 866.965 389.418C867.348 389.81 867.981 389.813 868.38 389.424L874.875 383.09ZM339.307 379.309C338.909 379.698 338.896 380.331 339.278 380.723L345.51 387.114C345.893 387.506 346.526 387.509 346.925 387.12C347.323 386.731 347.336 386.098 346.954 385.706L341.414 380.025L347.188 374.395C347.586 374.006 347.599 373.373 347.217 372.981C346.834 372.589 346.201 372.586 345.803 372.975L339.307 379.309ZM874.183 382.38L874.203 381.38L340.02 379.019L340 380.019L339.979 381.019L874.162 383.38L874.183 382.38Z" fill="#FACC15"/>
</g>
<g id="z-105-1-b-01-02">
<rect id="hitbox_4" x="298" y="457.46" width="125.46" height="13" transform="rotate(-90 298 457.46)" fill="#FACC15" fill-opacity="0.01"/>
<path id="arrow_4" d="M308.081 339.741C307.698 339.349 307.065 339.345 306.667 339.734L300.184 346.066C299.786 346.454 299.774 347.087 300.157 347.48C300.54 347.872 301.174 347.875 301.571 347.487L307.334 341.858L312.885 347.542C313.268 347.934 313.901 347.937 314.299 347.549C314.697 347.16 314.709 346.527 314.326 346.135L308.081 339.741ZM304.28 467.169C304.663 467.561 305.296 467.564 305.694 467.176L312.177 460.844C312.575 460.455 312.587 459.822 312.203 459.43C311.82 459.038 311.187 459.034 310.789 459.423L305.026 465.051L299.476 459.368C299.092 458.975 298.459 458.972 298.061 459.361C297.664 459.749 297.652 460.383 298.035 460.775L304.28 467.169ZM307.361 340.444L306.361 340.44L304 466.46L305 466.465L306 466.47L308.361 340.449L307.361 340.444Z" fill="#FACC15"/>
</g>
<g id="z-105-1-etc-launge">
<rect id="hitbox_5" x="655" y="573.392" width="177.332" height="13" transform="rotate(-45 655 573.392)" fill="#2E7FF6" fill-opacity="0.01"/>
<path id="arrow_5" d="M783.762 456.081C783.768 455.531 783.323 455.08 782.769 455.074L773.738 454.982C773.184 454.977 772.73 455.418 772.725 455.969C772.719 456.519 773.164 456.97 773.718 456.975L781.745 457.057L781.664 465.029C781.658 465.579 782.103 466.03 782.657 466.036C783.211 466.041 783.665 465.6 783.671 465.049L783.762 456.081ZM657.546 576.931C657.54 577.482 657.985 577.932 658.539 577.938L667.57 578.03C668.124 578.035 668.578 577.594 668.583 577.044C668.589 576.493 668.144 576.043 667.59 576.037L659.563 575.955L659.644 567.983C659.649 567.433 659.205 566.982 658.65 566.977C658.096 566.971 657.643 567.413 657.637 567.963L657.546 576.931ZM782.759 456.071L782.056 455.359L657.847 576.23L658.549 576.942L659.252 577.653L783.461 456.783L782.759 456.071Z" fill="#2E7FF6"/>
</g>
<g id="z-105-1-it-support">
<rect id="hitbox_6" x="733.628" y="665.889" width="87.0536" height="12" transform="rotate(-125 733.628 665.889)" fill="#FACC15" fill-opacity="0.01" />
<path id="arrow_6" d="M690.385 590.87C689.849 590.767 689.329 591.129 689.224 591.678L687.505 600.622C687.399 601.171 687.748 601.699 688.284 601.802C688.82 601.905 689.339 601.544 689.445 600.995L690.973 593.044L698.734 594.536C699.27 594.639 699.79 594.278 699.895 593.729C700.001 593.18 699.652 592.652 699.116 592.549L690.385 590.87ZM737.426 664.701C737.962 664.804 738.482 664.442 738.587 663.893L740.306 654.949C740.412 654.4 740.063 653.872 739.527 653.769C738.992 653.666 738.472 654.027 738.366 654.576L736.838 662.526L729.077 661.035C728.541 660.932 728.021 661.293 727.916 661.842C727.81 662.391 728.159 662.919 728.695 663.022L737.426 664.701ZM690.194 591.864L689.373 592.435L736.796 664.278L737.617 663.707L738.438 663.136L691.015 591.293L690.194 591.864Z" fill="#2E7FF6"/>
</g>
<g id="z-105-1-bathroom">
<rect id="hitbox_7" x="926" y="253" width="57" height="13" transform="rotate(-90 926 253)" fill="#2E7FF6" fill-opacity="0.01"/>
<path id="arrow_7" d="M934.117 196.592C933.743 196.201 933.11 196.199 932.703 196.589L926.069 202.933C925.662 203.322 925.635 203.955 926.009 204.346C926.383 204.737 927.017 204.738 927.424 204.349L933.32 198.709L938.737 204.373C939.111 204.764 939.744 204.766 940.152 204.377C940.559 203.987 940.585 203.355 940.211 202.964L934.117 196.592ZM930.282 253.705C930.656 254.096 931.289 254.097 931.696 253.708L938.33 247.363C938.737 246.974 938.764 246.342 938.39 245.951C938.016 245.559 937.383 245.558 936.975 245.947L931.079 251.587L925.662 245.923C925.288 245.532 924.655 245.531 924.248 245.92C923.841 246.309 923.814 246.942 924.188 247.333L930.282 253.705ZM933.38 197.297L932.38 197.294L930.019 252.998L931.019 253L932.019 253.002L934.38 197.299L933.38 197.297Z" fill="#2E7FF6"/>
</g>
</g>
</g>
</svg>
