<svg width="1200" height="800" viewBox="0 0 1200 800" fill="none" xmlns="http://www.w3.org/2000/svg">
<g id="105_0">
<g id="zones">
<g id="z-105-0-b-19-26">
<rect id="hitbox" x="626" y="373" width="252" height="13" fill="#FACC15" fill-opacity="0.01"/>
<path id="arrow" d="M873.699 381.094C874.093 380.707 874.099 380.074 873.712 379.679L867.409 373.255C867.023 372.861 866.389 372.855 865.995 373.241C865.601 373.628 865.595 374.261 865.982 374.656L871.584 380.366L865.874 385.969C865.479 386.356 865.473 386.989 865.86 387.383C866.247 387.777 866.88 387.783 867.274 387.396L873.699 381.094ZM625.3 377.305C624.905 377.692 624.899 378.325 625.286 378.719L631.589 385.144C631.976 385.538 632.609 385.544 633.003 385.157C633.397 384.771 633.403 384.138 633.017 383.743L627.414 378.033L633.125 372.43C633.519 372.043 633.525 371.41 633.138 371.016C632.752 370.622 632.118 370.616 631.724 371.002L625.3 377.305ZM872.998 380.38L873.008 379.38L626.01 377.019L626 378.019L625.99 379.019L872.989 381.38L872.998 380.38Z" fill="#FACC15"/>
</g>
<g id="z-105-0-b-pubfac">
<rect id="hitbox_2" x="338" y="373" width="248" height="13" fill="#2E7FF6" fill-opacity="0.01"/>
<path id="arrow_2" d="M583.699 382.074C584.093 381.688 584.099 381.055 583.712 380.66L577.41 374.236C577.023 373.842 576.39 373.836 575.995 374.222C575.601 374.609 575.595 375.242 575.982 375.636L581.585 381.347L575.874 386.95C575.48 387.336 575.474 387.97 575.86 388.364C576.247 388.758 576.88 388.764 577.274 388.377L583.699 382.074ZM335.3 378.286C334.906 378.673 334.9 379.306 335.286 379.7L341.589 386.125C341.976 386.519 342.609 386.525 343.003 386.138C343.398 385.752 343.404 385.118 343.017 384.724L337.414 379.014L343.125 373.411C343.519 373.024 343.525 372.391 343.139 371.997C342.752 371.603 342.119 371.597 341.724 371.983L335.3 378.286ZM582.999 381.361L583.008 380.361L336.01 378L336 379L335.991 380L582.989 382.361L582.999 381.361Z" fill="#2E7FF6"/>
</g>
<g id="z-105-0-b-05-06">
<rect id="hitbox_3" x="320" y="360" width="13" height="94" fill="#FACC15" fill-opacity="0.01"/>
<path id="arrow_3" d="M328.707 359.293C328.317 358.902 327.683 358.902 327.293 359.293L320.929 365.657C320.538 366.047 320.538 366.681 320.929 367.071C321.319 367.462 321.953 367.462 322.343 367.071L328 361.414L333.657 367.071C334.047 367.462 334.681 367.462 335.071 367.071C335.462 366.681 335.462 366.047 335.071 365.657L328.707 359.293ZM327.293 446.707C327.683 447.098 328.317 447.098 328.707 446.707L335.071 440.343C335.462 439.953 335.462 439.319 335.071 438.929C334.681 438.538 334.047 438.538 333.657 438.929L328 444.586L322.343 438.929C321.953 438.538 321.319 438.538 320.929 438.929C320.538 439.319 320.538 439.953 320.929 440.343L327.293 446.707ZM328 360H327V446H328H329V360H328Z" fill="#FACC15"/>
</g>
<g id="z-105-0-a-05-18">
<rect id="hitbox_4" x="459" y="183" width="476" height="15" fill="#FACC15" fill-opacity="0.01"/>
<path id="arrow_4" d="M935.704 191.71C936.096 191.321 936.099 190.688 935.71 190.296L929.373 183.905C928.984 183.513 928.351 183.51 927.959 183.899C927.566 184.288 927.564 184.921 927.953 185.314L933.586 190.994L927.905 196.627C927.513 197.016 927.51 197.649 927.899 198.041C928.288 198.434 928.921 198.436 929.314 198.047L935.704 191.71ZM457.296 188.29C456.904 188.679 456.901 189.312 457.29 189.704L463.627 196.095C464.016 196.487 464.649 196.49 465.041 196.101C465.434 195.712 465.436 195.079 465.047 194.686L459.414 189.006L465.095 183.373C465.487 182.984 465.49 182.351 465.101 181.959C464.712 181.566 464.079 181.564 463.686 181.953L457.296 188.29ZM935 191L935.004 190L458.004 188L458 189L457.996 190L934.996 192L935 191Z" fill="#FACC15"/>
</g>
<g id="z-105-0-a-01-02">
<rect id="hitbox_5" x="320" y="154" width="16" height="91" fill="#FACC15" fill-opacity="0.01"/>
<path id="arrow_5" d="M328.707 158.293C328.317 157.902 327.683 157.902 327.293 158.293L320.929 164.657C320.538 165.047 320.538 165.681 320.929 166.071C321.319 166.462 321.953 166.462 322.343 166.071L328 160.414L333.657 166.071C334.047 166.462 334.681 166.462 335.071 166.071C335.462 165.681 335.462 165.047 335.071 164.657L328.707 158.293ZM327.293 245.707C327.683 246.098 328.317 246.098 328.707 245.707L335.071 239.343C335.462 238.953 335.462 238.319 335.071 237.929C334.681 237.538 334.047 237.538 333.657 237.929L328 243.586L322.343 237.929C321.953 237.538 321.319 237.538 320.929 237.929C320.538 238.319 320.538 238.953 320.929 239.343L327.293 245.707ZM328 159H327V202H328H329V159H328ZM328 202H327V245H328H329V202H328Z" fill="#FACC15"/>
</g>
</g>
</g>
</svg>
