<svg width="1200" height="800" viewBox="0 0 1200 800" fill="none" xmlns="http://www.w3.org/2000/svg">
<g id="105_0">
<g id="zones">
<g id="z-105-0-b-19-26">
<rect id="hitbox" x="626" y="373" width="252" height="13" fill="#FACC15" fill-opacity="0.01"/>
<path id="arrow" d="M873.699 381.094C874.093 380.707 874.099 380.074 873.712 379.679L867.409 373.255C867.023 372.861 866.389 372.855 865.995 373.241C865.601 373.628 865.595 374.261 865.982 374.656L871.584 380.366L865.874 385.969C865.479 386.356 865.473 386.989 865.86 387.383C866.247 387.777 866.88 387.783 867.274 387.396L873.699 381.094ZM625.3 377.305C624.905 377.692 624.899 378.325 625.286 378.719L631.589 385.144C631.976 385.538 632.609 385.544 633.003 385.157C633.397 384.771 633.403 384.138 633.017 383.743L627.414 378.033L633.125 372.43C633.519 372.043 633.525 371.41 633.138 371.016C632.752 370.622 632.118 370.616 631.724 371.002L625.3 377.305ZM872.998 380.38L873.008 379.38L626.01 377.019L626 378.019L625.99 379.019L872.989 381.38L872.998 380.38Z" fill="#FACC15"/>
</g>
<g id="z-105-0-food">
<rect id="hitbox_2" x="784" y="574.579" width="109.105" height="13" transform="rotate(-50 784 574.579)" fill="#22C55E" fill-opacity="0.01"/>
<path id="arrow_2" d="M859.399 497.328C859.358 496.782 858.875 496.373 858.319 496.414L849.264 497.087C848.708 497.128 848.29 497.604 848.331 498.15C848.372 498.696 848.855 499.105 849.411 499.064L857.46 498.466L858.047 506.372C858.088 506.917 858.571 507.326 859.127 507.285C859.683 507.244 860.1 506.768 860.06 506.222L859.399 497.328ZM786.839 577.88C786.879 578.426 787.363 578.835 787.918 578.794L796.974 578.121C797.529 578.08 797.947 577.604 797.906 577.058C797.866 576.512 797.382 576.103 796.827 576.144L788.778 576.743L788.19 568.836C788.15 568.291 787.666 567.882 787.111 567.923C786.555 567.964 786.137 568.44 786.178 568.986L786.839 577.88ZM858.393 497.402L857.629 496.757L787.081 577.16L787.845 577.806L788.608 578.451L859.156 498.048L858.393 497.402Z" fill="#22C55E"/>
</g>
<g id="z-105-0-b-pubfac">
<rect id="hitbox_3" x="338" y="373" width="248" height="13" fill="#2E7FF6" fill-opacity="0.01"/>
<path id="arrow_3" d="M583.699 382.074C584.093 381.688 584.099 381.055 583.712 380.66L577.41 374.236C577.023 373.842 576.39 373.836 575.995 374.222C575.601 374.609 575.595 375.242 575.982 375.636L581.585 381.347L575.874 386.95C575.48 387.336 575.474 387.97 575.86 388.364C576.247 388.758 576.88 388.764 577.274 388.377L583.699 382.074ZM335.3 378.286C334.906 378.673 334.9 379.306 335.286 379.7L341.589 386.125C341.976 386.519 342.609 386.525 343.003 386.138C343.398 385.752 343.404 385.118 343.017 384.724L337.414 379.014L343.125 373.411C343.519 373.024 343.525 372.391 343.139 371.997C342.752 371.603 342.119 371.597 341.724 371.983L335.3 378.286ZM582.999 381.361L583.008 380.361L336.01 378L336 379L335.991 380L582.989 382.361L582.999 381.361Z" fill="#2E7FF6"/>
</g>
<g id="z-105-0-b-05-06">
<rect id="hitbox_4" x="320" y="360" width="13" height="94" fill="#FACC15" fill-opacity="0.01"/>
<path id="arrow_4" d="M328.707 359.293C328.317 358.902 327.683 358.902 327.293 359.293L320.929 365.657C320.538 366.047 320.538 366.681 320.929 367.071C321.319 367.462 321.953 367.462 322.343 367.071L328 361.414L333.657 367.071C334.047 367.462 334.681 367.462 335.071 367.071C335.462 366.681 335.462 366.047 335.071 365.657L328.707 359.293ZM327.293 446.707C327.683 447.098 328.317 447.098 328.707 446.707L335.071 440.343C335.462 439.953 335.462 439.319 335.071 438.929C334.681 438.538 334.047 438.538 333.657 438.929L328 444.586L322.343 438.929C321.953 438.538 321.319 438.538 320.929 438.929C320.538 439.319 320.538 439.953 320.929 440.343L327.293 446.707ZM328 360H327V446H328H329V360H328Z" fill="#FACC15"/>
</g>
<g id="z-105-0-a-05-18">
<rect id="hitbox_5" x="459" y="183" width="476" height="15" fill="#FACC15" fill-opacity="0.01"/>
<path id="arrow_5" d="M935.704 191.71C936.096 191.321 936.099 190.688 935.71 190.296L929.373 183.905C928.984 183.513 928.351 183.51 927.959 183.899C927.566 184.288 927.564 184.921 927.953 185.314L933.586 190.994L927.905 196.627C927.513 197.016 927.51 197.649 927.899 198.041C928.288 198.434 928.921 198.436 929.314 198.047L935.704 191.71ZM457.296 188.29C456.904 188.679 456.901 189.312 457.29 189.704L463.627 196.095C464.016 196.487 464.649 196.49 465.041 196.101C465.434 195.712 465.436 195.079 465.047 194.686L459.414 189.006L465.095 183.373C465.487 182.984 465.49 182.351 465.101 181.959C464.712 181.566 464.079 181.564 463.686 181.953L457.296 188.29ZM935 191L935.004 190L458.004 188L458 189L457.996 190L934.996 192L935 191Z" fill="#FACC15"/>
</g>
<g id="z-105-0-a-01-02">
<rect id="hitbox_6" x="320" y="154" width="16" height="91" fill="#FACC15" fill-opacity="0.01"/>
<path id="arrow_6" d="M328.707 158.293C328.317 157.902 327.683 157.902 327.293 158.293L320.929 164.657C320.538 165.047 320.538 165.681 320.929 166.071C321.319 166.462 321.953 166.462 322.343 166.071L328 160.414L333.657 166.071C334.047 166.462 334.681 166.462 335.071 166.071C335.462 165.681 335.462 165.047 335.071 164.657L328.707 158.293ZM327.293 245.707C327.683 246.098 328.317 246.098 328.707 245.707L335.071 239.343C335.462 238.953 335.462 238.319 335.071 237.929C334.681 237.538 334.047 237.538 333.657 237.929L328 243.586L322.343 237.929C321.953 237.538 321.319 237.538 320.929 237.929C320.538 238.319 320.538 238.953 320.929 239.343L327.293 245.707ZM328 159H327V202H328H329V159H328ZM328 202H327V245H328H329V202H328Z" fill="#FACC15"/>
</g>
<g id="z-105-0-examhale2">
<rect id="hitbox_7" x="634.592" y="271.2" width="281.409" height="16.8" fill="#FA1515" fill-opacity="0.01"/>
<path id="arrow_7" d="M916.706 280.873C917.097 280.485 917.099 279.852 916.709 279.459L910.359 273.044C909.97 272.65 909.336 272.645 908.945 273.033C908.554 273.42 908.552 274.053 908.942 274.447L914.586 280.149L908.917 285.761C908.526 286.148 908.524 286.781 908.914 287.175C909.303 287.569 909.937 287.574 910.328 287.186L916.706 280.873ZM633.295 277.207C632.903 277.595 632.902 278.228 633.291 278.621L639.641 285.036C640.031 285.43 640.664 285.435 641.055 285.047C641.447 284.66 641.448 284.027 641.058 283.633L635.414 277.931L641.083 272.319C641.475 271.932 641.476 271.299 641.087 270.905C640.697 270.511 640.064 270.506 639.672 270.894L633.295 277.207ZM916 280.16L916.002 279.16L634.002 276.92L634 277.92L633.998 278.92L915.998 281.16L916 280.16Z" fill="#FA1515"/>
</g>
<g id="z-105-0-bathroom">
<rect id="hitbox_8" x="736" y="673" width="57" height="13" transform="rotate(-90 736 673)" fill="#2E7FF6" fill-opacity="0.01"/>
<path id="arrow_8" d="M744.117 616.592C743.743 616.201 743.11 616.199 742.703 616.589L736.069 622.933C735.662 623.322 735.635 623.955 736.009 624.346C736.383 624.737 737.017 624.738 737.424 624.349L743.32 618.71L748.737 624.373C749.111 624.765 749.744 624.766 750.152 624.377C750.559 623.987 750.585 623.355 750.211 622.964L744.117 616.592ZM740.282 673.705C740.656 674.096 741.289 674.097 741.696 673.708L748.33 667.363C748.737 666.974 748.764 666.342 748.39 665.951C748.016 665.56 747.383 665.558 746.975 665.947L741.079 671.587L735.662 665.923C735.288 665.532 734.655 665.531 734.248 665.92C733.841 666.309 733.814 666.942 734.188 667.333L740.282 673.705ZM743.38 617.297L742.38 617.294L740.019 672.998L741.019 673L742.019 673.002L744.38 617.299L743.38 617.297Z" fill="#2E7FF6"/>
</g>
</g>
</g>
</svg>
