<svg width="1200" height="800" viewBox="0 0 1200 800" fill="none" xmlns="http://www.w3.org/2000/svg">
<g id="101_0">
<g id="zones">
<g id="z-101-0-a-pr-media">
<rect id="hitbox" x="122" y="353" width="12" height="50" fill="#EF4444" fill-opacity="0.01"/>
<path id="arrow" d="M127.854 355.646C127.658 355.451 127.342 355.451 127.146 355.646L123.964 358.828C123.769 359.024 123.769 359.34 123.964 359.536C124.16 359.731 124.476 359.731 124.672 359.536L127.5 356.707L130.328 359.536C130.524 359.731 130.84 359.731 131.036 359.536C131.231 359.34 131.231 359.024 131.036 358.828L127.854 355.646ZM127.5 399L130.387 394H124.613L127.5 399ZM127.5 356H127V394.5H127.5H128V356H127.5Z" fill="#EF4444"/>
</g>
<g id="z-101-0-a-ksi-only">
<rect id="hitbox_2" x="80" y="322" width="9" height="31" fill="#EF4444" fill-opacity="0.01"/>
<path id="arrow_2" d="M85.3536 325.646C85.1583 325.451 84.8417 325.451 84.6464 325.646L81.4645 328.828C81.2692 329.024 81.2692 329.34 81.4645 329.536C81.6597 329.731 81.9763 329.731 82.1716 329.536L85 326.707L87.8284 329.536C88.0237 329.731 88.3403 329.731 88.5355 329.536C88.7308 329.34 88.7308 329.024 88.5355 328.828L85.3536 325.646ZM84.6464 350.354C84.8417 350.549 85.1583 350.549 85.3536 350.354L88.5355 347.172C88.7308 346.976 88.7308 346.66 88.5355 346.464C88.3403 346.269 88.0237 346.269 87.8284 346.464L85 349.293L82.1716 346.464C81.9763 346.269 81.6597 346.269 81.4645 346.464C81.2692 346.66 81.2692 346.976 81.4645 347.172L84.6464 350.354ZM85 326H84.5V350H85H85.5V326H85Z" fill="#EF4444"/>
</g>
<g id="z-101-0-a-141-imp">
<rect id="hitbox_3" x="35" y="264" width="186" height="49" fill="#EF4444" fill-opacity="0.01"/>
<path id="arrow_3" d="M212.061 288.561C212.646 287.975 212.646 287.025 212.061 286.439L202.515 276.893C201.929 276.308 200.979 276.308 200.393 276.893C199.808 277.479 199.808 278.429 200.393 279.015L208.879 287.5L200.393 295.985C199.808 296.571 199.808 297.521 200.393 298.107C200.979 298.692 201.929 298.692 202.515 298.107L212.061 288.561ZM45 287.5V289H211V287.5V286H45V287.5Z" fill="#EF4444"/>
</g>
<g id="z-101-0-e-139-157-cafes-east">
<rect id="hitbox_4" x="211" y="369" width="452" height="17" fill="#22C55E" fill-opacity="0.01"/>
<path id="arrow_4" d="M635.818 378.058C636.4 377.47 636.393 376.521 635.803 375.937L626.187 366.416C625.597 365.832 624.647 365.835 624.065 366.422C623.484 367.009 623.491 367.959 624.081 368.543L632.629 377.006L624.206 385.513C623.624 386.101 623.631 387.05 624.221 387.635C624.812 388.219 625.761 388.216 626.343 387.629L635.818 378.058ZM634.75 377L634.739 375.5L240.902 376.549L240.913 378.049L240.924 379.549L634.761 378.5L634.75 377Z" fill="#22C55E"/>
</g>
<g id="z-101-0-e-pubfac-145">
<rect id="hitbok" x="744" y="281" width="21" height="83" fill="#2E7FF6" fill-opacity="0.01"/>
<path id="arrow_5" d="M756.061 284.939C755.475 284.354 754.525 284.354 753.939 284.939L744.393 294.485C743.808 295.071 743.808 296.021 744.393 296.607C744.979 297.192 745.929 297.192 746.515 296.607L755 288.121L763.485 296.607C764.071 297.192 765.021 297.192 765.607 296.607C766.192 296.021 766.192 295.071 765.607 294.485L756.061 284.939ZM753.939 361.061C754.525 361.646 755.475 361.646 756.061 361.061L765.607 351.515C766.192 350.929 766.192 349.979 765.607 349.393C765.021 348.808 764.071 348.808 763.485 349.393L755 357.879L746.515 349.393C745.929 348.808 744.979 348.808 744.393 349.393C743.808 349.979 743.808 350.929 744.393 351.515L753.939 361.061ZM755 286H753.5V360H755H756.5V286H755Z" fill="#2E7FF6"/>
</g>
<g id="z-101-0-a-151-154-cafes">
<rect id="hitbox_5" x="682" y="373" width="260" height="13" fill="#22C55E" fill-opacity="0.01"/>
<path id="arrow_6" d="M941.079 378.548C941.658 377.955 941.647 377.006 941.054 376.427L931.395 366.995C930.802 366.416 929.853 366.428 929.274 367.02C928.695 367.613 928.706 368.563 929.299 369.142L937.885 377.525L929.501 386.111C928.922 386.704 928.934 387.653 929.526 388.232C930.119 388.811 931.069 388.8 931.647 388.207L941.079 378.548ZM683.933 379.488C683.354 380.08 683.366 381.03 683.958 381.609L693.617 391.041C694.21 391.619 695.16 391.608 695.738 391.015C696.317 390.423 696.306 389.473 695.713 388.894L687.127 380.51L695.511 371.925C696.09 371.332 696.079 370.382 695.486 369.804C694.893 369.225 693.943 369.236 693.365 369.829L683.933 379.488ZM940.006 377.5L939.988 376L684.988 379.036L685.006 380.536L685.024 382.036L940.024 379L940.006 377.5Z" fill="#22C55E"/>
</g>
<g id="z-101-0-n-rest-4">
<rect id="hitbox_6" x="955" y="285" width="55" height="97" rx="6" fill="#22C55E" fill-opacity="0.01"/>
<path id="arrow_7" d="M955.696 375.776C955.287 376.496 955.538 377.412 956.258 377.821L967.99 384.5C968.71 384.91 969.626 384.658 970.036 383.938C970.446 383.218 970.194 382.302 969.474 381.893L959.046 375.956L964.982 365.527C965.392 364.808 965.14 363.892 964.42 363.482C963.701 363.072 962.785 363.323 962.375 364.043L955.696 375.776ZM1009.3 363.26C1009.71 362.54 1009.46 361.624 1008.74 361.214L997.01 354.536C996.29 354.126 995.374 354.377 994.964 355.097C994.554 355.817 994.806 356.733 995.526 357.143L1005.95 363.079L1000.02 373.508C999.608 374.228 999.86 375.144 1000.58 375.554C1001.3 375.964 1002.22 375.712 1002.63 374.992L1009.3 363.26ZM957 376.518L957.397 377.964L1008.4 363.964L1008 362.518L1007.6 361.071L956.603 375.071L957 376.518Z" fill="#22C55E"/>
</g>
<g id="z-101-0-e-fo-3-west">
<rect id="hitbox_7" x="209" y="571" width="33" height="17" fill="#FACC15" fill-opacity="0.01"/>
<path id="arrow_8" d="M240.707 580.207C241.098 579.817 241.098 579.183 240.707 578.793L234.343 572.429C233.953 572.038 233.319 572.038 232.929 572.429C232.538 572.819 232.538 573.453 232.929 573.843L238.586 579.5L232.929 585.157C232.538 585.547 232.538 586.181 232.929 586.571C233.319 586.962 233.953 586.962 234.343 586.571L240.707 580.207ZM210.293 578.793C209.902 579.183 209.902 579.817 210.293 580.207L216.657 586.571C217.047 586.962 217.681 586.962 218.071 586.571C218.462 586.181 218.462 585.547 218.071 585.157L212.414 579.5L218.071 573.843C218.462 573.453 218.462 572.819 218.071 572.429C217.681 572.038 217.047 572.038 216.657 572.429L210.293 578.793ZM240 579.5V578.5H211V579.5V580.5H240V579.5Z" fill="#FACC15"/>
</g>
<g id="z-101-0-rm-116-119">
<rect id="hitbox_8" x="1000" y="414" width="7" height="207" fill="#FACC15" fill-opacity="0.01"/>
<path id="arrows" d="M1004.71 418.293C1004.32 417.902 1003.68 417.902 1003.29 418.293L996.929 424.657C996.538 425.047 996.538 425.681 996.929 426.071C997.319 426.462 997.953 426.462 998.343 426.071L1004 420.414L1009.66 426.071C1010.05 426.462 1010.68 426.462 1011.07 426.071C1011.46 425.681 1011.46 425.047 1011.07 424.657L1004.71 418.293ZM1003.29 617.707C1003.68 618.098 1004.32 618.098 1004.71 617.707L1011.07 611.343C1011.46 610.953 1011.46 610.319 1011.07 609.929C1010.68 609.538 1010.05 609.538 1009.66 609.929L1004 615.586L998.343 609.929C997.953 609.538 997.319 609.538 996.929 609.929C996.538 610.319 996.538 610.953 996.929 611.343L1003.29 617.707ZM1004 419H1003V617H1004H1005V419H1004Z" fill="#FACC15"/>
</g>
<g id="z-101-0-e-118">
<rect id="hitbox_9" x="252" y="573" width="135" height="15" fill="#FACC15" fill-opacity="0.01"/>
<path id="arrow_9" d="M255.927 579.952C255.348 580.545 255.359 581.495 255.952 582.073L265.613 591.503C266.206 592.082 267.155 592.07 267.734 591.478C268.313 590.885 268.301 589.935 267.708 589.356L259.121 580.974L267.503 572.387C268.082 571.794 268.07 570.845 267.478 570.266C266.885 569.687 265.935 569.699 265.356 570.292L255.927 579.952ZM382.073 580.548C382.652 579.955 382.641 579.005 382.048 578.427L372.387 568.997C371.794 568.418 370.845 568.43 370.266 569.022C369.687 569.615 369.699 570.565 370.292 571.144L378.879 579.526L370.497 588.113C369.918 588.706 369.93 589.655 370.522 590.234C371.115 590.813 372.065 590.801 372.644 590.208L382.073 580.548ZM257 581L257.018 582.5L381.018 581L381 579.5L380.982 578L256.982 579.5L257 581Z" fill="#FACC15"/>
</g>
<g id="z-101-0-b-104-109">
<rect id="hitbox_10" x="393" y="572" width="328" height="16" fill="#FACC15" fill-opacity="0.01"/>
<path id="arrow_10" d="M713.052 580.564C713.64 579.98 713.643 579.031 713.059 578.443L703.545 568.866C702.961 568.278 702.011 568.275 701.423 568.859C700.836 569.443 700.833 570.392 701.416 570.98L709.874 579.493L701.361 587.95C700.773 588.534 700.77 589.484 701.354 590.072C701.938 590.659 702.887 590.663 703.475 590.079L713.052 580.564ZM405.938 577.436C405.35 578.02 405.347 578.969 405.931 579.557L415.446 589.134C416.029 589.722 416.979 589.725 417.567 589.141C418.155 588.557 418.158 587.608 417.574 587.02L409.116 578.507L417.629 570.05C418.217 569.466 418.22 568.516 417.636 567.928C417.053 567.341 416.103 567.337 415.515 567.921L405.938 577.436ZM711.995 579.5L712 578L407 577L406.995 578.5L406.99 580L711.99 581L711.995 579.5Z" fill="#FACC15"/>
</g>
<g id="z-101-0-e-160-162">
<rect id="hitbox_11" x="624" y="416" width="14" height="153" fill="#FACC15" fill-opacity="0.01"/>
<path id="arrow_11" d="M632.061 414.939C631.475 414.354 630.525 414.354 629.939 414.939L620.393 424.485C619.808 425.071 619.808 426.021 620.393 426.607C620.979 427.192 621.929 427.192 622.515 426.607L631 418.121L639.485 426.607C640.071 427.192 641.021 427.192 641.607 426.607C642.192 426.021 642.192 425.071 641.607 424.485L632.061 414.939ZM631 416L629.5 416L629.5 569L631 569L632.5 569L632.5 416L631 416Z" fill="#FACC15"/>
</g>
<g id="z-101-0-e-150-151">
<rect id="hitbox_12" x="499" y="416" width="14" height="153" fill="#FACC15" fill-opacity="0.01"/>
<path id="arrow_12" d="M507.061 414.939C506.475 414.354 505.525 414.354 504.939 414.939L495.393 424.485C494.808 425.071 494.808 426.021 495.393 426.607C495.979 427.192 496.929 427.192 497.515 426.607L506 418.121L514.485 426.607C515.071 427.192 516.021 427.192 516.607 426.607C517.192 426.021 517.192 425.071 516.607 424.485L507.061 414.939ZM504.939 570.061C505.525 570.646 506.475 570.646 507.061 570.061L516.607 560.515C517.192 559.929 517.192 558.979 516.607 558.393C516.021 557.808 515.071 557.808 514.485 558.393L506 566.879L497.515 558.393C496.929 557.808 495.979 557.808 495.393 558.393C494.808 558.979 494.808 559.929 495.393 560.515L504.939 570.061ZM506 416L504.5 416L504.5 569L506 569L507.5 569L507.5 416L506 416Z" fill="#FACC15"/>
</g>
<g id="z-101-0-e-140-142">
<rect id="hitbox_13" x="374" y="416" width="14" height="153" fill="#FACC15" fill-opacity="0.01"/>
<path id="arrow_13" d="M382.061 414.939C381.475 414.354 380.525 414.354 379.939 414.939L370.393 424.485C369.808 425.071 369.808 426.021 370.393 426.607C370.979 427.192 371.929 427.192 372.515 426.607L381 418.121L389.485 426.607C390.071 427.192 391.021 427.192 391.607 426.607C392.192 426.021 392.192 425.071 391.607 424.485L382.061 414.939ZM379.939 570.061C380.525 570.646 381.475 570.646 382.061 570.061L391.607 560.515C392.192 559.929 392.192 558.979 391.607 558.393C391.021 557.808 390.071 557.808 389.485 558.393L381 566.879L372.515 558.393C371.929 557.808 370.979 557.808 370.393 558.393C369.808 558.979 369.808 559.929 370.393 560.515L379.939 570.061ZM381 416L379.5 416L379.5 569L381 569L382.5 569L382.5 416L381 416Z" fill="#FACC15"/>
</g>
<g id="z-101-0-e-130-136">
<rect id="hitbox_14" x="249" y="416" width="14" height="153" fill="#FACC15" fill-opacity="0.01"/>
<path id="arrow_14" d="M257.061 414.939C256.475 414.354 255.525 414.354 254.939 414.939L245.393 424.485C244.808 425.071 244.808 426.021 245.393 426.607C245.979 427.192 246.929 427.192 247.515 426.607L256 418.121L264.485 426.607C265.071 427.192 266.021 427.192 266.607 426.607C267.192 426.021 267.192 425.071 266.607 424.485L257.061 414.939ZM254.939 570.061C255.525 570.646 256.475 570.646 257.061 570.061L266.607 560.515C267.192 559.929 267.192 558.979 266.607 558.393C266.021 557.808 265.071 557.808 264.485 558.393L256 566.879L247.515 558.393C246.929 557.808 245.979 557.808 245.393 558.393C244.808 558.979 244.808 559.929 245.393 560.515L254.939 570.061ZM256 416L254.5 416L254.5 569L256 569L257.5 569L257.5 416L256 416Z" fill="#FACC15"/>
</g>
<g id="z-101-0-a-entr">
<rect id="hitbox_15" x="894" y="411" width="30" height="228" fill="#EF4444" fill-opacity="0.01"/>
<path id="arrow_15" d="M911.566 416.947C910.982 416.358 910.033 416.354 909.444 416.937L899.854 426.439C899.266 427.022 899.262 427.971 899.845 428.56C900.428 429.148 901.377 429.153 901.966 428.57L910.49 420.124L918.936 428.648C919.519 429.236 920.469 429.241 921.058 428.658C921.646 428.075 921.65 427.125 921.067 426.536L911.566 416.947ZM908.444 634.058C909.027 634.647 909.976 634.651 910.565 634.068L920.155 624.566C920.743 623.983 920.748 623.033 920.165 622.445C919.582 621.856 918.632 621.852 918.043 622.435L909.519 630.881L901.073 622.357C900.49 621.768 899.54 621.764 898.952 622.347C898.363 622.93 898.359 623.88 898.942 624.468L908.444 634.058ZM910.5 418.002L909 417.995L908.009 632.995L909.509 633.002L911.009 633.009L912 418.009L910.5 418.002Z" fill="#EF4444"/>
</g>
</g>
</g>
</svg>
