<svg width="1200" height="800" viewBox="0 0 1200 800" fill="none" xmlns="http://www.w3.org/2000/svg">
<g id="101_2">
<g id="zones">
<g id="z-101-2-e-360-361">
<rect id="hitbox" x="942" y="380" width="28" height="215" fill="#FACC15" fill-opacity="0.01"/>
<path id="arrow" d="M957.561 382.939C956.975 382.354 956.025 382.354 955.439 382.939L945.893 392.485C945.308 393.071 945.308 394.021 945.893 394.607C946.479 395.192 947.429 395.192 948.015 394.607L956.5 386.121L964.985 394.607C965.571 395.192 966.521 395.192 967.107 394.607C967.692 394.021 967.692 393.071 967.107 392.485L957.561 382.939ZM955.439 586.061C956.025 586.646 956.975 586.646 957.561 586.061L967.107 576.515C967.692 575.929 967.692 574.979 967.107 574.393C966.521 573.808 965.571 573.808 964.985 574.393L956.5 582.879L948.015 574.393C947.429 573.808 946.479 573.808 945.893 574.393C945.308 574.979 945.308 575.929 945.893 576.515L955.439 586.061ZM956.5 384H955V585H956.5H958V384H956.5Z" fill="#FACC15"/>
</g>
<g id="z-101-2-e-350-352">
<rect id="hitbox_2" x="699" y="381" width="31" height="214" fill="#FACC15" fill-opacity="0.01"/>
<path id="arrow_2" d="M716.061 389.939C715.475 389.354 714.525 389.354 713.939 389.939L704.393 399.485C703.808 400.071 703.808 401.021 704.393 401.607C704.979 402.192 705.929 402.192 706.515 401.607L715 393.121L723.485 401.607C724.071 402.192 725.021 402.192 725.607 401.607C726.192 401.021 726.192 400.071 725.607 399.485L716.061 389.939ZM713.939 587.061C714.525 587.646 715.475 587.646 716.061 587.061L725.607 577.515C726.192 576.929 726.192 575.979 725.607 575.393C725.021 574.808 724.071 574.808 723.485 575.393L715 583.879L706.515 575.393C705.929 574.808 704.979 574.808 704.393 575.393C703.808 575.979 703.808 576.929 704.393 577.515L713.939 587.061ZM715 391H713.5V586H715H716.5V391H715Z" fill="#FACC15"/>
</g>
<g id="z-101-2-e-340-342">
<rect id="hitbox_3" x="456" y="384" width="31" height="214" fill="#FACC15" fill-opacity="0.01"/>
<path id="arrow_3" d="M473.061 392.939C472.475 392.354 471.525 392.354 470.939 392.939L461.393 402.485C460.808 403.071 460.808 404.021 461.393 404.607C461.979 405.192 462.929 405.192 463.515 404.607L472 396.121L480.485 404.607C481.071 405.192 482.021 405.192 482.607 404.607C483.192 404.021 483.192 403.071 482.607 402.485L473.061 392.939ZM470.939 590.061C471.525 590.646 472.475 590.646 473.061 590.061L482.607 580.515C483.192 579.929 483.192 578.979 482.607 578.393C482.021 577.808 481.071 577.808 480.485 578.393L472 586.879L463.515 578.393C462.929 577.808 461.979 577.808 461.393 578.393C460.808 578.979 460.808 579.929 461.393 580.515L470.939 590.061ZM472 394H470.5V589H472H473.5V394H472Z" fill="#FACC15"/>
</g>
<g id="z-101-2-e-330-332">
<rect id="hitbox_4" x="213" y="380" width="31" height="214" fill="#FACC15" fill-opacity="0.01"/>
<path id="arrow_4" d="M228.939 586.061C229.525 586.646 230.475 586.646 231.061 586.061L240.607 576.515C241.192 575.929 241.192 574.979 240.607 574.393C240.021 573.808 239.071 573.808 238.485 574.393L230 582.879L221.515 574.393C220.929 573.808 219.979 573.808 219.393 574.393C218.808 574.979 218.808 575.929 219.393 576.515L228.939 586.061ZM230 390H228.5V585H230H231.5V390H230Z" fill="#FACC15"/>
</g>
<g id="z-101-2-e-305-311">
<rect id="hitbox_5" x="506" y="602" width="585" height="23" fill="#FACC15" fill-opacity="0.01"/>
<path id="arrow_5" d="M1083.06 617.562C1083.64 616.978 1083.64 616.028 1083.06 615.441L1073.53 605.88C1072.94 605.293 1071.99 605.291 1071.41 605.876C1070.82 606.461 1070.82 607.411 1071.4 607.998L1079.88 616.497L1071.38 624.968C1070.79 625.553 1070.79 626.503 1071.37 627.089C1071.96 627.676 1072.91 627.678 1073.5 627.093L1083.06 617.562ZM514.938 614.523C514.352 615.108 514.35 616.058 514.935 616.645L524.466 626.206C525.05 626.793 526 626.794 526.587 626.209C527.174 625.625 527.175 624.675 526.59 624.088L518.119 615.589L526.618 607.117C527.204 606.533 527.206 605.583 526.621 604.996C526.036 604.409 525.087 604.408 524.5 604.993L514.938 614.523ZM1082 616.5L1082 615L516 614.086L515.997 615.586L515.995 617.086L1082 618L1082 616.5Z" fill="#FACC15"/>
</g>
<g id="z-101-2-e-323-325">
<rect id="hitbox_6" x="138" y="603" width="349" height="22" fill="#2E7FF6" fill-opacity="0.01"/>
<path id="arrow_6" d="M481.056 616.564C481.643 615.98 481.646 615.03 481.062 614.443L471.546 604.867C470.962 604.28 470.012 604.277 469.424 604.861C468.837 605.445 468.834 606.395 469.418 606.982L477.877 615.493L469.366 623.953C468.778 624.537 468.775 625.486 469.359 626.074C469.943 626.662 470.893 626.665 471.481 626.081L481.056 616.564ZM148.941 613.424C148.354 614.008 148.351 614.958 148.935 615.545L158.451 625.12C159.035 625.708 159.985 625.711 160.573 625.127C161.16 624.543 161.163 623.593 160.579 623.006L152.12 614.494L160.631 606.035C161.219 605.451 161.222 604.501 160.638 603.914C160.054 603.326 159.104 603.323 158.516 603.907L148.941 613.424ZM479.998 615.5L480.003 614L150.003 612.988L149.999 614.488L149.994 615.988L479.994 617L479.998 615.5Z" fill="#2E7FF6"/>
</g>
<g id="z-101-2-e-336-357">
<rect id="hitbox_7" x="219" y="316" width="864" height="20" fill="#121212" fill-opacity="0.01"/>
<path id="arrow_7" d="M227.939 325.439C227.354 326.025 227.354 326.975 227.939 327.561L237.485 337.107C238.071 337.692 239.021 337.692 239.607 337.107C240.192 336.521 240.192 335.571 239.607 334.985L231.121 326.5L239.607 318.015C240.192 317.429 240.192 316.479 239.607 315.893C239.021 315.308 238.071 315.308 237.485 315.893L227.939 325.439ZM1074 326.5V325L229 325V326.5V328L1074 328V326.5Z" fill="#121212"/>
</g>
</g>
</g>
</svg>
