<svg width="1200" height="800" viewBox="0 0 1200 800" xmlns="http://www.w3.org/2000/svg">
<style>
  /* Make all arrows non-interactive so clicks go to hitboxes only */
  path { pointer-events: none; }
</style>
<g id="101_1">
<g id="zones">
<g id="z-101-1-e-250-252">
<rect id="hitbox" x="493" y="444" width="14" height="142" fill="#FACC15" fill-opacity="0.01"/>
<path id="arrow" d="M501.207 446.293C500.817 445.902 500.183 445.902 499.793 446.293L493.429 452.657C493.038 453.047 493.038 453.681 493.429 454.071C493.819 454.462 494.453 454.462 494.843 454.071L500.5 448.414L506.157 454.071C506.547 454.462 507.181 454.462 507.571 454.071C507.962 453.681 507.962 453.047 507.571 452.657L501.207 446.293ZM499.793 581.707C500.183 582.098 500.817 582.098 501.207 581.707L507.571 575.343C507.962 574.953 507.962 574.319 507.571 573.929C507.181 573.538 506.547 573.538 506.157 573.929L500.5 579.586L494.843 573.929C494.453 573.538 493.819 573.538 493.429 573.929C493.038 574.319 493.038 574.953 493.429 575.343L499.793 581.707ZM500.5 447L499.5 447L499.5 581L500.5 581L501.5 581L501.5 447L500.5 447Z" fill="#FACC15"/>
</g>
<g id="z-101-1-e-240-244">
<rect id="hitbox_2" x="371" y="447" width="15" height="139" fill="#FACC15" fill-opacity="0.01"/>
<path id="arrow_2" d="M379.207 448.293C378.817 447.902 378.183 447.902 377.793 448.293L371.429 454.657C371.038 455.047 371.038 455.681 371.429 456.071C371.819 456.462 372.453 456.462 372.843 456.071L378.5 450.414L384.157 456.071C384.547 456.462 385.181 456.462 385.571 456.071C385.962 455.681 385.962 455.047 385.571 454.657L379.207 448.293ZM377.793 581.707C378.183 582.098 378.817 582.098 379.207 581.707L385.571 575.343C385.962 574.953 385.962 574.319 385.571 573.929C385.181 573.538 384.547 573.538 384.157 573.929L378.5 579.586L372.843 573.929C372.453 573.538 371.819 573.538 371.429 573.929C371.038 574.319 371.038 574.953 371.429 575.343L377.793 581.707ZM378.5 449H377.5V581H378.5H379.5V449H378.5Z" fill="#FACC15"/>
</g>
<g id="z-101-1-e-230-234">
<rect id="hitbox_3" x="249" y="447" width="15" height="139" fill="#FACC15" fill-opacity="0.01"/>
<path id="arrow_3" d="M256.707 453.293C256.317 452.902 255.683 452.902 255.293 453.293L248.929 459.657C248.538 460.047 248.538 460.681 248.929 461.071C249.319 461.462 249.953 461.462 250.343 461.071L256 455.414L261.657 461.071C262.047 461.462 262.681 461.462 263.071 461.071C263.462 460.681 263.462 460.047 263.071 459.657L256.707 453.293ZM255.293 580.707C255.683 581.098 256.317 581.098 256.707 580.707L263.071 574.343C263.462 573.953 263.462 573.319 263.071 572.929C262.681 572.538 262.047 572.538 261.657 572.929L256 578.586L250.343 572.929C249.953 572.538 249.319 572.538 248.929 572.929C248.538 573.319 248.538 573.953 248.929 574.343L255.293 580.707ZM256 454L255 454L255 580L256 580L257 580L257 454L256 454Z" fill="#FACC15"/>
</g>
<g id="z-101-1-a-lib-i-c">
<rect id="hitbox_4" x="671" y="405" width="328" height="13" fill="#EF4444" fill-opacity="0.01"/>
<path id="arrow_4" d="M993.705 412.709C994.097 412.32 994.099 411.687 993.709 411.295L987.367 404.91C986.978 404.518 986.345 404.516 985.953 404.905C985.561 405.294 985.559 405.928 985.948 406.319L991.586 411.995L985.91 417.633C985.518 418.022 985.516 418.655 985.905 419.047C986.294 419.439 986.928 419.441 987.319 419.052L993.705 412.709ZM676.295 410.23C675.904 410.619 675.902 411.252 676.291 411.644L682.633 418.03C683.023 418.421 683.656 418.424 684.047 418.034C684.439 417.645 684.441 417.012 684.052 416.62L678.414 410.944L684.09 405.307C684.482 404.917 684.484 404.284 684.095 403.892C683.706 403.5 683.073 403.498 682.681 403.888L676.295 410.23ZM993 412L993.003 411L677.004 409.94L677 410.94L676.997 411.94L992.997 413L993 412Z" fill="#EF4444"/>
</g>
<g id="z-101-1-e-236-257">
<rect id="hitbox_5" x="188" y="404" width="468" height="14" fill="#2E7FF6" fill-opacity="0.01"/>
<path id="arrow_5" d="M652.709 411.706C653.098 411.314 653.097 410.681 652.706 410.291L646.328 403.941C645.936 403.552 645.303 403.553 644.914 403.944C644.524 404.336 644.525 404.969 644.917 405.359L650.586 411.003L644.941 416.672C644.552 417.064 644.553 417.697 644.944 418.086C645.336 418.476 645.969 418.475 646.359 418.083L652.709 411.706ZM191.291 411.294C190.902 411.686 190.903 412.319 191.294 412.709L197.672 419.059C198.064 419.448 198.697 419.447 199.086 419.056C199.476 418.664 199.475 418.031 199.083 417.641L193.414 411.997L199.059 406.328C199.448 405.936 199.447 405.303 199.056 404.914C198.664 404.524 198.031 404.525 197.641 404.917L191.291 411.294ZM652 411L651.998 410L191.998 411L192 412L192.002 413L652.002 412L652 411Z" fill="#2E7FF6"/>
</g>
<g id="z-101-1-e-211-fo-ric">
<rect id="hitbox_6" x="401" y="590" width="288" height="14" fill="#FACC15" fill-opacity="0.01"/>
<path id="arrow_6" d="M682.707 597.707C683.098 597.317 683.098 596.683 682.707 596.293L676.343 589.929C675.953 589.538 675.319 589.538 674.929 589.929C674.538 590.319 674.538 590.953 674.929 591.343L680.586 597L674.929 602.657C674.538 603.047 674.538 603.681 674.929 604.071C675.319 604.462 675.953 604.462 676.343 604.071L682.707 597.707ZM408.293 596.293C407.902 596.683 407.902 597.317 408.293 597.707L414.657 604.071C415.047 604.462 415.681 604.462 416.071 604.071C416.462 603.681 416.462 603.047 416.071 602.657L410.414 597L416.071 591.343C416.462 590.953 416.462 590.319 416.071 589.929C415.681 589.538 415.047 589.538 414.657 589.929L408.293 596.293ZM682 597V596H409V597V598H682V597Z" fill="#FACC15"/>
</g>
<g id="z-101-1-e-216-gs-218-wing">
<rect id="hitbox_7" x="209.987" y="590" width="174.013" height="15" fill="#EF4444" fill-opacity="0.01"/>
<path id="arrow_7" d="M378.349 598.712C378.744 598.324 378.75 597.69 378.364 597.297L372.065 590.893C371.678 590.5 371.045 590.496 370.651 590.884C370.256 591.272 370.25 591.906 370.636 592.299L376.235 597.991L370.52 603.612C370.126 604 370.119 604.633 370.506 605.026C370.892 605.419 371.525 605.423 371.92 605.035L378.349 598.712ZM215.639 596.264C215.244 596.652 215.238 597.285 215.624 597.678L221.923 604.082C222.309 604.475 222.942 604.479 223.337 604.091C223.731 603.703 223.738 603.07 223.351 602.677L217.753 596.985L223.467 591.364C223.862 590.976 223.868 590.343 223.482 589.95C223.095 589.557 222.462 589.553 222.068 589.941L215.639 596.264ZM377.649 598L377.659 597L216.349 595.976L216.338 596.976L216.328 597.976L377.639 599L377.649 598Z" fill="#EF4444"/>
</g>
<g id="z-101-1-a-iao">
<rect id="hitbox_8" x="215" y="291" width="12" height="93" fill="#2E7FF6" fill-opacity="0.01"/>
<path id="arrow_8" d="M221.707 294.293C221.317 293.902 220.683 293.902 220.293 294.293L213.929 300.657C213.538 301.047 213.538 301.681 213.929 302.071C214.319 302.462 214.953 302.462 215.343 302.071L221 296.414L226.657 302.071C227.047 302.462 227.681 302.462 228.071 302.071C228.462 301.681 228.462 301.047 228.071 300.657L221.707 294.293ZM220.293 381.707C220.683 382.098 221.317 382.098 221.707 381.707L228.071 375.343C228.462 374.953 228.462 374.319 228.071 373.929C227.681 373.538 227.047 373.538 226.657 373.929L221 379.586L215.343 373.929C214.953 373.538 214.319 373.538 213.929 373.929C213.538 374.319 213.538 374.953 213.929 375.343L220.293 381.707ZM221 295H220V381H221H222V295H221Z" fill="#2E7FF6"/>
</g>
<g id="z-101-1-a-iao-afd">
<rect id="hitbox_9" x="87" y="290" width="123" height="9" fill="black" fill-opacity="0.01"/>
<path id="arrow_9" d="M207.707 295.707C208.098 295.317 208.098 294.683 207.707 294.293L201.343 287.929C200.953 287.538 200.319 287.538 199.929 287.929C199.538 288.319 199.538 288.953 199.929 289.343L205.586 295L199.929 300.657C199.538 301.047 199.538 301.681 199.929 302.071C200.319 302.462 200.953 302.462 201.343 302.071L207.707 295.707ZM89.2929 294.293C88.9024 294.683 88.9024 295.317 89.2929 295.707L95.6569 302.071C96.0474 302.462 96.6805 302.462 97.0711 302.071C97.4616 301.681 97.4616 301.047 97.0711 300.657L91.4142 295L97.0711 289.343C97.4616 288.953 97.4616 288.319 97.0711 287.929C96.6805 287.538 96.0474 287.538 95.6569 287.929L89.2929 294.293ZM207 295V294H90V295V296H207V295Z" fill="black"/>
</g>
<g id="z-101-1-a-201-205">
<rect id="hitbox_10" x="79" y="232" width="16" height="33" fill="black" fill-opacity="0.01"/>
<path id="arrow_10" d="M87.7071 233.293C87.3166 232.902 86.6834 232.902 86.2929 233.293L79.9289 239.657C79.5384 240.047 79.5384 240.681 79.9289 241.071C80.3195 241.462 80.9526 241.462 81.3431 241.071L87 235.414L92.6569 241.071C93.0474 241.462 93.6805 241.462 94.0711 241.071C94.4616 240.681 94.4616 240.047 94.0711 239.657L87.7071 233.293ZM86.2929 263.707C86.6834 264.098 87.3166 264.098 87.7071 263.707L94.0711 257.343C94.4616 256.953 94.4616 256.319 94.0711 255.929C93.6805 255.538 93.0474 255.538 92.6569 255.929L87 261.586L81.3431 255.929C80.9526 255.538 80.3195 255.538 79.9289 255.929C79.5384 256.319 79.5384 256.953 79.9289 257.343L86.2929 263.707ZM87 234H86V263H87H88V234H87Z" fill="black"/>
</g>
<g id="z-101-1-a-202-206-207">
<rect id="hitbox_11" x="127" y="218" width="16" height="21" fill="black" fill-opacity="0.01"/>
<path id="arrow_11" d="M135.854 220.646C135.658 220.451 135.342 220.451 135.146 220.646L131.964 223.828C131.769 224.024 131.769 224.34 131.964 224.536C132.16 224.731 132.476 224.731 132.672 224.536L135.5 221.707L138.328 224.536C138.524 224.731 138.84 224.731 139.036 224.536C139.231 224.34 139.231 224.024 139.036 223.828L135.854 220.646ZM135.146 236.354C135.342 236.549 135.658 236.549 135.854 236.354L139.036 233.172C139.231 232.976 139.231 232.66 139.036 232.464C138.84 232.269 138.524 232.269 138.328 232.464L135.5 235.293L132.672 232.464C132.476 232.269 132.16 232.269 131.964 232.464C131.769 232.66 131.769 232.976 131.964 233.172L135.146 236.354ZM135.5 221H135V236H135.5H136V221H135.5Z" fill="black"/>
</g>
<g id="z-101-1-a-245-246">
<rect id="hitbox_12" x="130" y="303" width="13" height="78" fill="black" fill-opacity="0.01"/>
<path id="arrow_12" d="M137.707 306.293C137.317 305.902 136.683 305.902 136.293 306.293L129.929 312.657C129.538 313.047 129.538 313.681 129.929 314.071C130.319 314.462 130.953 314.462 131.343 314.071L137 308.414L142.657 314.071C143.047 314.462 143.681 314.462 144.071 314.071C144.462 313.681 144.462 313.047 144.071 312.657L137.707 306.293ZM136.293 377.707C136.683 378.098 137.317 378.098 137.707 377.707L144.071 371.343C144.462 370.953 144.462 370.319 144.071 369.929C143.681 369.538 143.047 369.538 142.657 369.929L137 375.586L131.343 369.929C130.953 369.538 130.319 369.538 129.929 369.929C129.538 370.319 129.538 370.953 129.929 371.343L136.293 377.707ZM137 307H136V377H137H138V307H137Z" fill="black"/>
</g>
</g>
</g>
</svg>
